# File created by Blade
# Date/Time:  Wed Jan 28 15:39:58 2015
#---------------------------------------------------------
:version 1.10
:name HOM
:units
  mass 1.0
  length 1.000000
  angle deg
:documentation
     Acclaim Skeleton File
:root
   axis xyz
   order TX TY TZ RX RY RZ
   position 0.000000 0.000000 0.000000
   orientation 0 0 0
:bonedata
   begin
      id 1
      name Spine_dum
      direction 0.000000 1.000000 0.000000
      length 6.864287
      axis 0.0 0.0 0.0 xyz
   end
   begin
      id 2
      name LeftUpLeg_dum
      direction 1.000000 0.000000 0.000000
      length 4.117376
      axis 0.0 0.0 0.0 xyz
   end
   begin
      id 3
      name RightUpLeg_dum
      direction -1.000000 0.000000 0.000000
      length 4.117376
      axis 0.0 0.0 0.0 xyz
   end
   begin
      id 4
      name Spine
      direction 0.000000 1.000000 0.000000
      length 0.000000
      axis 0.0 0.0 0.0 xyz
      dof rx ry rz
   end
   begin
      id 5
      name Spine_dum1
      direction 0.000000 1.000000 0.000000
      length 15.393827
      axis 0.0 0.0 0.0 xyz
   end
   begin
      id 6
      name Spine_dum2
      direction 0.000000 1.000000 0.000000
      length 9.314826
      axis 0.0 0.0 0.0 xyz
   end
   begin
      id 7
      name Spine_dum3
      direction 0.000000 1.000000 0.000000
      length 9.314826
      axis 0.0 0.0 0.0 xyz
   end
   begin
      id 8
      name Head
      direction 0.000000 1.000000 0.000000
      length 4.527550
      axis 0.0 0.0 0.0 xyz
      dof rx ry rz
   end
   begin
      id 9
      name LeftShoulder
      direction 1.000000 0.000000 0.000000
      length 8.275398
      axis 0.0 0.0 -90.0 xyz
      dof rx ry rz
   end
   begin
      id 10
      name LeftArm
      direction 1.000000 0.000000 0.000000
      length 12.002200
      axis 0.0 0.0 -90.0 xyz
      dof rx ry rz
   end
   begin
      id 11
      name LeftForeArm
      direction 1.000000 0.000000 0.000000
      length 10.144633
      axis 0.0 0.0 -90.0 xyz
      dof ry rz rx
   end
   begin
      id 12
      name LeftHand
      direction 0.000000 0.000000 0.000000
      length 0.000000
      axis 0.0 0.0 -90.0 xyz
      dof rx ry rz
   end
   begin
      id 13
      name LeftHand_dum1
      direction 0.000000 0.000000 0.000000
      length 0.000000
      axis 0.0 0.0 -90.0 xyz
   end
   begin
      id 14
      name LeftHand_dum2
      direction 1.000000 0.000000 0.000000
      length 3.937000
      axis 0.0 0.0 -90.0 xyz
   end
   begin
      id 15
      name LeftHandThumb1
      direction 0.000000 0.000000 1.000000
      length 3.937000
      axis 0.0 0.0 -90.0 xyz
      dof rx rz ry
   end
   begin
      id 16
      name RightShoulder
      direction -1.000000 0.000000 0.000000
      length 8.275398
      axis 0.0 0.0 90.0 xyz
      dof rx ry rz
   end
   begin
      id 17
      name RightArm
      direction -1.000000 0.000000 0.000000
      length 12.002200
      axis 0.0 0.0 90.0 xyz
      dof rx ry rz
   end
   begin
      id 18
      name RightForeArm
      direction -1.000000 0.000000 0.000000
      length 10.144633
      axis 0.0 0.0 90.0 xyz
      dof ry rz rx
   end
   begin
      id 19
      name RightHand
      direction 0.000000 0.000000 0.000000
      length 0.000000
      axis 0.0 0.0 90.0 xyz
      dof rx ry rz
   end
   begin
      id 20
      name RightHand_dum1
      direction 0.000000 0.000000 0.000000
      length 0.000000
      axis 0.0 0.0 90.0 xyz
   end
   begin
      id 21
      name RightHand_dum2
      direction -1.000000 0.000000 0.000000
      length 3.937000
      axis 0.0 0.0 90.0 xyz
   end
   begin
      id 22
      name RightHandThumb1
      direction 0.000000 0.000000 1.000000
      length 3.937000
      axis 0.0 0.0 90.0 xyz
      dof rx rz ry
   end
   begin
      id 23
      name LeftUpLeg
      direction 0.000000 -1.000000 0.000000
      length 19.394322
      axis 0.0 0.0 0.0 xyz
      dof rx ry rz
   end
   begin
      id 24
      name LeftLeg
      direction 0.000000 -1.000000 0.000000
      length 17.609563
      axis 0.0 0.0 0.0 xyz
      dof rx ry rz
   end
   begin
      id 25
      name LeftFoot
      direction 0.000000 -0.258819 0.965926
      length 6.085393
      axis 15.0 0.0 0.0 xyz
      dof rx ry rz
   end
   begin
      id 26
      name LeftToeBase
      direction 0.000000 0.000000 1.000000
      length 2.952750
      axis 0.0 0.0 0.0 xyz
      dof rx ry rz
   end
   begin
      id 27
      name RightUpLeg
      direction 0.000000 -1.000000 0.000000
      length 19.394322
      axis 0.0 0.0 0.0 xyz
      dof rx ry rz
   end
   begin
      id 28
      name RightLeg
      direction 0.000000 -1.000000 0.000000
      length 17.609563
      axis 0.0 0.0 0.0 xyz
      dof rx ry rz
   end
   begin
      id 29
      name RightFoot
      direction 0.000000 -0.258819 0.965926
      length 6.085393
      axis 15.0 0.0 0.0 xyz
      dof rx ry rz
   end
   begin
      id 30
      name RightToeBase
      direction 0.000000 0.000000 1.000000
      length 2.952750
      axis 0.0 0.0 0.0 xyz
      dof rx ry rz
   end
:hierarchy
   begin
      root Spine_dum LeftUpLeg_dum RightUpLeg_dum
      Spine_dum Spine
      LeftUpLeg_dum LeftUpLeg
      RightUpLeg_dum RightUpLeg
      Spine Spine_dum1 Spine_dum2 Spine_dum3
      Spine_dum1 Head
      Spine_dum2 LeftShoulder
      Spine_dum3 RightShoulder
      LeftShoulder LeftArm
      LeftArm LeftForeArm
      LeftForeArm LeftHand
      LeftHand LeftHand_dum1 LeftHand_dum2
      LeftHand_dum1 LeftHandThumb1
      RightShoulder RightArm
      RightArm RightForeArm
      RightForeArm RightHand
      RightHand RightHand_dum1 RightHand_dum2
      RightHand_dum1 RightHandThumb1
      LeftUpLeg LeftLeg
      LeftLeg LeftFoot
      LeftFoot LeftToeBase
      RightUpLeg RightLeg
      RightLeg RightFoot
      RightFoot RightToeBase
   end

# File created by Blade
# Date/Time:  Wed Jan 28 15:40:07 2015
# Frame Rate: 120.000 fps
#------------------------------------------------------
:FULLY-SPECIFIED
:DEGREES
1557
root -7.683436 40.360615 -15.129392 16.370912 -48.236033 46.383794
Spine 14.007588 2.165675 21.421697
Head -32.639899 -35.445880 3.216634
LeftShoulder -19.490591 15.006313 -7.648081
LeftArm 8.045452 18.679729 -89.794841
LeftForeArm -16.631314 -0.000000 7.742724
LeftHand -1.483380 -0.000000 -9.168321
LeftHandThumb1 -26.253704 0.000000 33.147579
RightShoulder -13.186312 9.469824 -44.230050
RightArm 23.884693 75.809625 50.298904
RightForeArm -3.221006 -0.000000 101.209845
RightHand -14.456609 -0.000000 -44.109815
RightHandThumb1 -24.326973 -0.000000 -32.862282
LeftUpLeg -17.814342 0.502155 17.718431
LeftLeg 152.587206 -0.000000 -0.000000
LeftFoot 23.524959 0.139158 -27.693512
LeftToeBase 8.964046 -0.000000 -0.000000
RightUpLeg -56.817539 -10.990310 -20.105833
RightLeg 23.707330 -0.000000 -0.000000
RightFoot -26.051294 -18.571777 13.601774
RightToeBase 8.298386 -0.000000 -0.000000
1558
root -7.671208 40.354962 -15.114230 16.338920 -48.226490 46.393396
Spine 14.009320 2.101915 21.374647
Head -32.016854 -35.685011 3.164316
LeftShoulder -19.452265 15.015050 -7.542078
LeftArm 8.038329 18.775614 -89.826988
LeftForeArm -16.748617 -0.000000 7.725447
LeftHand -1.356537 0.000000 -9.052939
LeftHandThumb1 -26.253704 0.000000 33.147579
RightShoulder -13.127313 9.431989 -44.154905
RightArm 24.321968 75.837103 50.727958
RightForeArm -3.293334 -0.000000 101.237722
RightHand -14.486108 -0.000000 -44.078678
RightHandThumb1 -24.326973 -0.000000 -32.862282
LeftUpLeg -17.815683 0.401494 17.791168
LeftLeg 152.587521 -0.000000 -0.000000
LeftFoot 23.278748 0.130351 -28.007729
LeftToeBase 9.151812 -0.000000 -0.000000
RightUpLeg -56.845000 -10.979441 -20.169792
RightLeg 23.842798 -0.000000 -0.000000
RightFoot -26.107239 -18.637642 13.623967
RightToeBase 8.069615 -0.000000 -0.000000
1559
root -7.661060 40.347362 -15.098349 16.264430 -48.218214 46.394653
Spine 14.061711 2.026176 21.318756
Head -31.348680 -35.871143 3.094806
LeftShoulder -19.389154 15.095972 -7.467201
LeftArm 8.097210 18.853062 -89.813303
LeftForeArm -16.818947 -0.000000 7.763775
LeftHand -1.309677 0.000000 -9.004970
LeftHandThumb1 -26.253704 0.000000 33.147579
RightShoulder -13.068197 9.424777 -44.082668
RightArm 24.615454 75.836496 51.031589
RightForeArm -3.334278 0.000000 101.254199
RightHand -14.473636 -0.000000 -44.001739
RightHandThumb1 -24.326973 -0.000000 -32.862282
LeftUpLeg -17.760531 0.268227 17.873657
LeftLeg 152.569905 -0.000000 -0.000000
LeftFoot 23.018273 -0.019453 -28.117556
LeftToeBase 9.360201 -0.000000 -0.000000
RightUpLeg -56.833127 -10.940733 -20.240373
RightLeg 24.008561 -0.000000 -0.000000
RightFoot -26.177259 -18.666026 13.667907
RightToeBase 8.025036 -0.000000 -0.000000
1560
root -7.646234 40.346778 -15.081207 16.133240 -48.222278 46.521499
Spine 14.087848 1.974389 21.145111
Head -30.744919 -36.008553 3.046141
LeftShoulder -19.345739 15.177847 -7.377998
LeftArm 8.186667 18.884952 -89.781538
LeftForeArm -16.780101 -0.000000 7.814585
LeftHand -1.346845 -0.000000 -9.025085
LeftHandThumb1 -26.253704 0.000000 33.147579
RightShoulder -13.019831 9.446223 -43.979313
RightArm 24.761060 75.822047 51.182966
RightForeArm -3.345831 0.000000 101.265399
RightHand -14.463547 -0.000000 -43.905254
RightHandThumb1 -24.326973 -0.000000 -32.862282
LeftUpLeg -17.757737 0.151590 17.830055
LeftLeg 152.567763 -0.000000 -0.000000
LeftFoot 22.897142 0.096080 -29.124146
LeftToeBase 9.048675 -0.000000 -0.000000
RightUpLeg -56.866798 -10.934932 -20.393530
RightLeg 24.177889 -0.000000 -0.000000
RightFoot -26.235000 -18.686590 13.740168
RightToeBase 8.029527 -0.000000 -0.000000
1561
root -7.633365 40.343160 -15.068605 16.067672 -48.189900 46.529995
Spine 14.132914 1.912722 21.073216
Head -30.126106 -36.283906 2.996101
LeftShoulder -19.262771 15.192558 -7.241123
LeftArm 8.184286 18.928416 -89.813285
LeftForeArm -16.831208 0.000000 7.858941
LeftHand -1.287245 0.000000 -9.007176
LeftHandThumb1 -26.253704 0.000000 33.147579
RightShoulder -12.967214 9.457115 -43.900385
RightArm 24.733640 75.791931 51.159563
RightForeArm -3.356266 0.000000 101.263133
RightHand -14.422367 -0.000000 -44.014440
RightHandThumb1 -24.326973 -0.000000 -32.862282
LeftUpLeg -17.769566 0.041426 17.883041
LeftLeg 152.582972 -0.000000 -0.000000
LeftFoot 22.582126 0.049855 -29.222781
LeftToeBase 9.565210 -0.000000 -0.000000
RightUpLeg -56.851223 -10.909264 -20.469342
RightLeg 24.313716 -0.000000 -0.000000
RightFoot -26.273173 -18.789319 13.737381
RightToeBase 7.964613 -0.000000 -0.000000
1562
root -7.621788 40.341200 -15.057515 16.012209 -48.157817 46.533841
Spine 14.166863 1.854684 21.000277
Head -29.447085 -36.514150 2.945476
LeftShoulder -19.169015 15.179558 -7.123566
LeftArm 8.138556 18.974850 -89.819844
LeftForeArm -16.786094 -0.000000 7.964121
LeftHand -1.389403 -0.000000 -9.113885
LeftHandThumb1 -26.253704 0.000000 33.147579
RightShoulder -12.921993 9.350374 -43.802047
RightArm 25.045005 75.784582 51.476183
RightForeArm -3.458485 0.000000 101.259662
RightHand -14.442310 -0.000000 -44.172972
RightHandThumb1 -24.326973 -0.000000 -32.862282
LeftUpLeg -17.782845 -0.122926 17.960696
LeftLeg 152.608156 -0.000000 -0.000000
LeftFoot 22.515692 0.069663 -30.002278
LeftToeBase 9.405240 -0.000000 -0.000000
RightUpLeg -56.832804 -10.877009 -20.543142
RightLeg 24.433825 -0.000000 -0.000000
RightFoot -26.317174 -18.857019 13.799287
RightToeBase 7.980791 -0.000000 -0.000000
1563
root -7.614198 40.336626 -15.047938 15.974792 -48.129147 46.456370
Spine 14.230118 1.799771 20.965043
Head -28.680155 -36.719476 2.864238
LeftShoulder -19.104109 15.272557 -7.023939
LeftArm 8.251996 19.102904 -89.795470
LeftForeArm -16.891485 0.000000 7.976125
LeftHand -1.285051 -0.000000 -9.132026
LeftHandThumb1 -26.253704 0.000000 33.147579
RightShoulder -12.805251 9.329859 -43.713056
RightArm 24.728074 75.776165 51.209458
RightForeArm -3.418012 0.000000 101.274038
RightHand -14.323221 -0.000000 -44.102826
RightHandThumb1 -24.326973 -0.000000 -32.862282
LeftUpLeg -17.752952 -0.280408 18.091269
LeftLeg 152.616809 -0.000000 -0.000000
LeftFoot 22.374157 0.016486 -30.327431
LeftToeBase 9.606835 -0.000000 -0.000000
RightUpLeg -56.767046 -10.812107 -20.564626
RightLeg 24.535746 -0.000000 -0.000000
RightFoot -26.335724 -18.943562 13.776223
RightToeBase 7.915894 -0.000000 -0.000000
1564
root -7.604603 40.334862 -15.037977 15.917483 -48.075414 46.407871
Spine 14.302625 1.706922 20.897351
Head -27.944562 -36.838171 2.803854
LeftShoulder -19.056627 15.381168 -6.925752
LeftArm 8.382791 19.203707 -89.786432
LeftForeArm -17.071604 -0.000000 8.004109
LeftHand -1.202731 -0.000000 -9.112522
LeftHandThumb1 -26.253704 0.000000 33.147579
RightShoulder -12.742793 9.194765 -43.584830
RightArm 25.109890 75.776624 51.619825
RightForeArm -3.521328 -0.000000 101.255194
RightHand -14.320799 -0.000000 -44.133650
RightHandThumb1 -24.326973 -0.000000 -32.862282
LeftUpLeg -17.754770 -0.377088 18.154989
LeftLeg 152.645780 -0.000000 -0.000000
LeftFoot 22.058615 -0.056579 -30.037841
LeftToeBase 10.015427 -0.000000 -0.000000
RightUpLeg -56.697582 -10.812935 -20.567688
RightLeg 24.628858 -0.000000 -0.000000
RightFoot -26.340207 -18.989193 13.747876
RightToeBase 7.912229 -0.000000 -0.000000
1565
root -7.594953 40.334275 -15.029127 15.822246 -48.039542 46.403703
Spine 14.372424 1.637241 20.769376
Head -27.148153 -36.929945 2.751938
LeftShoulder -19.020130 15.424280 -6.785484
LeftArm 8.483870 19.428473 -89.767988
LeftForeArm -17.139146 -0.000000 7.992095
LeftHand -1.152286 -0.000000 -9.102290
LeftHandThumb1 -26.253704 0.000000 33.147579
RightShoulder -12.672274 9.071719 -43.439274
RightArm 25.259027 75.730605 51.810155
RightForeArm -3.648842 -0.000000 101.269366
RightHand -14.452793 -0.000000 -44.191406
RightHandThumb1 -24.326973 -0.000000 -32.862282
LeftUpLeg -17.753065 -0.500529 18.186853
LeftLeg 152.668528 -0.000000 -0.000000
LeftFoot 21.974380 0.129322 -30.749812
LeftToeBase 9.618088 -0.000000 -0.000000
RightUpLeg -56.629746 -10.787930 -20.623107
RightLeg 24.727927 -0.000000 -0.000000
RightFoot -26.358368 -19.044215 13.766597
RightToeBase 7.925263 -0.000000 -0.000000
1566
root -7.584709 40.333750 -15.022804 15.780624 -47.975152 46.351429
Spine 14.399316 1.540951 20.688514
Head -26.299432 -37.028699 2.591426
LeftShoulder -19.011785 15.319750 -6.615872
LeftArm 8.431441 19.654842 -89.791185
LeftForeArm -17.190869 -0.000000 7.974883
LeftHand -1.106965 0.000000 -9.136324
LeftHandThumb1 -26.253704 0.000000 33.147579
RightShoulder -12.635609 9.134386 -43.360179
RightArm 24.957252 75.485603 51.567509
RightForeArm -3.744059 -0.000000 101.239326
RightHand -14.367750 -0.000000 -44.251325
RightHandThumb1 -24.326973 -0.000000 -32.862282
LeftUpLeg -17.800168 -0.651715 18.266757
LeftLeg 152.690430 -0.000000 -0.000000
LeftFoot 21.793299 0.214157 -31.024747
LeftToeBase 10.055252 -0.000000 -0.000000
RightUpLeg -56.569040 -10.783968 -20.635884
RightLeg 24.823069 -0.000000 -0.000000
RightFoot -26.360266 -19.079272 13.781970
RightToeBase 7.790018 -0.000000 -0.000000
